<svg xmlns="http://www.w3.org/2000/svg" viewBox="0 0 250.14 159.58" x="0px" y="0px" style="enable-background:new 0 0 250.14 159.58;" xml:space="preserve">
	<defs>
		<style>
			.path {
			  stroke: #A67C00;
			  fill: #A67C00;
			  fill-opacity:0;
			}

			@keyframes anim1 {
			  0%  {
				stroke-dashoffset: 4900;
			  }
			  100% {
				stroke-dashoffset: 0;
			  }
			}

			.letter {
			  stroke-dasharray: 1200;
			  stroke-dashoffset: 1200;
			  animation: anim1 0.7s linear 2s forwards, anim2 1s linear 3s forwards;
			}
			@keyframes anim1 {
			  0%  {
				stroke-dashoffset: 1200;
			  }
			  100% {
				stroke-dashoffset: 0;

			  }
			}
			@keyframes anim2 {
			  0% {
				fill-opacity: 0;
			  }
			  100% {
				fill-opacity: 1;
			  }
			}
		</style>
	</defs>
	<path class="path letter" d="M55.77,34.25a189.29,189.29,0,0,0,51.5-22.13c4.87,3.25,13,8.5,14.62,8.38s8-2.5,8-2.5,12.5,8,15.13,8.37c5.12-2.5,12.25-6.87,12.25-6.87A98.47,98.47,0,0,0,187.64,32c-3.5-.38-20.5-4.38-25.25-6.75-2.75-.63-6.12-.5-7.87-1.13-2.88.5-6.63,3.25-6.63,3.25s5,2,13,4.63a95.26,95.26,0,0,1-25.25-7.5c-1.12-.13-4.75,0-6.25-.5s-3.5-1.88-4.62-2-6.88,1.37-10.38,3.12c-2.12-1.25-4-4-10.12-4s-16,5.63-16,5.63a14.56,14.56,0,0,0-8.75,1.12C74.77,30,69.64,32.37,55.77,34.25Z"/>
	<path class="path letter" d="M48.07,41.25S39.94,35.12,30.32,40C32.07,37,41.14,32.87,48.07,41.25Z"/>
	<path class="path letter" d="M143.77,84.25V83c-4.13,0-3.88,4.87-3.88,4.87h-.62l-1.38-3.5-11,20.75v-19l-2-1v3.13h-1V86c0-2.25-4.37-3.38-4.37-3.38v1.13a8.77,8.77,0,0,1,2.75,1.5V99.37a75.21,75.21,0,0,1-2.2,19.25c-9.38,30.13-42.88,35.5-59,37-32,2.5-56-16.37-56-40.12S18.69,83.87,18.69,83.87A16,16,0,0,0,28.19,88c5.75.37,12.25-1.88,12.5-3.5-4.5-8.63-16.12-7-23.25-4.63-8-8.37-6.37-17.12-6.37-17.12,0-15.34,10.54-18,18.12-17.38a19.6,19.6,0,0,1,7.64,2.38C19.64,33-7.36,57.25,15.52,81.25-3.48,94.87-2.48,120,5,134.12S29,160.7,55,159.5c32.5-1.5,44.48-10.15,53.87-17.25,14.88-11.25,17.88-33.38,17.88-33.38l10.5-20.12v18.87c0,2.63-3.13,2.25-3.13,2.25v1.25c4.63,0,4.88-3.5,4.88-3.5h.87c0,3.13,3.88,3.38,3.88,3.38v-1.13c-1.13,0-2.63-.75-2.63-2V87.37C141.14,83.75,143.77,84.25,143.77,84.25Zm-104.63.37s-11,4.5-17.37-2.75C21.77,81.87,32.14,76.12,39.14,84.62Z"/>
	<path class="path letter" d="M200.39,40.38s8.12-6.13,17.75-1.25C216.39,36.13,207.26,32,200.39,40.38Z"/>
	<path class="path letter" d="M188.64,153.75c30.84,4,55.63-15.31,55.63-39.06,0-26-15.27-31.78-15.27-31.78A16,16,0,0,1,219.5,87c-5.75.37-12.25-1.88-12.5-3.5,4.5-8.63,16.13-7,23.25-4.63,8-8.37,6.38-17.12,6.38-17.12,0-15.34-10.54-18-18.13-17.38a19.27,19.27,0,0,0-7.64,2.38C228,32,255,56.29,232.13,80.29c23.81,14.34,19.64,40.74,12.14,54.87s-25.13,23.21-49.63,22.09c0,0-22.33,1.16-57.16-15.17-12.34,5.33-35.34,14.58-54.34,17.54,16.17-4.37,41.67-13.7,50.84-18.37-5-2.34-10.5-4.67-10.5-4.67l2.83-2.33,10.17,4.83,5.83-2.83L128,130.75l.5-1.5s24.33,10.67,43,14.83c19.16,4.17,42,2.17,50.66-13.67-8.83-4.16-35.66-11.33-69.83,5a9.16,9.16,0,0,1-1.67-2s37.34-20.33,74.5-6.66c3.5-9.5,11-26.84-8.83-34.59,0,0,28.67,2.59,13.17,35.75l2.83,1.84-2,5.16-4-2.33s-2.5,12-29.3,16.18c-20,2.49-51-10.68-51-10.68l-4.84,2.5s19.68,10.23,47.47,13.13ZM208.5,83.66s11,4.5,17.38-2.75c0,0-10.38-5.79-17.38,2.71Z"/>
	<path class="path letter" d="M32.27,92.12s-13,4.5-13,22.25c-.38,15.5,13.62,23.75,13.62,23.75s26.25-29.75,70.75-11l-1.5,2.88s-16.75-6.63-31.87-5.75-27.7,5.62-35.75,15.12c6.75,3.63,24.51,11.15,49,4.88a56.16,56.16,0,0,0,28.62-21l2,1S101.25,147,68.9,150.19c-35.75,3.13-56.76-20.82-54.53-37.46C14.37,112.73,15.07,94.75,32.27,92.12Z"/>
	<path class="path letter" d="M27.64,147s1.32-1.64,2.82-3.25l-.82-.75A18.7,18.7,0,0,0,27.64,147Z"/>
	<path class="path letter" d="M113.89,14.75s5.88,3.43,8.4,4c1.74,0,5.63-2,7.88-2.39.71.21,6.51,3.83,10.4,6.24a17.2,17.2,0,0,0,2.08-8c.09-4.71-4.25-12.3-11.4-14.29S114.07,4.8,113.89,14.75Z"/>
	<polygon class="path letter" points="87.47 32.96 88.8 35.66 91.79 36.1 89.63 38.2 90.14 41.18 87.47 39.77 84.8 41.18 85.3 38.2 83.14 36.1 86.13 35.66 87.47 32.96"/>
	<polygon class="path letter" points="112.31 32.96 113.65 35.66 116.64 36.1 114.48 38.2 114.98 41.18 112.31 39.77 109.64 41.18 110.15 38.2 107.99 36.1 110.98 35.66 112.31 32.96"/>
	<polygon class="path letter" points="136.81 32.96 138.15 35.66 141.14 36.1 138.98 38.2 139.49 41.18 136.81 39.77 134.14 41.18 134.65 38.2 132.49 36.1 135.48 35.66 136.81 32.96"/>
	<polygon class="path letter" points="160.65 32.96 161.98 35.66 164.97 36.1 162.81 38.2 163.32 41.18 160.65 39.77 157.98 41.18 158.49 38.2 156.33 36.1 159.31 35.66 160.65 32.96"/>
	<path class="path letter" d="M65,106.45C61,98.1,54.62,68.53,54.62,68.53H53.07v4.41c-1.12-.12-2.14-3.16-2.14-3.16H49.21c-1.49,8.34-6,23.76-9.14,32.61a25.84,25.84,0,0,1-3.29,6.66H33.41c-1.13,3.38.56,13.54.56,13.54h1.92c.68-9.93,2.94-11.74,4-11.74H59.25c4.85,0,5.53,2,5.53,2l.45,5.31h1.84a60.32,60.32,0,0,0,1.92-9A6.93,6.93,0,0,1,65,106.45Zm-9.24,2.26H41.65s-.32-1.89,1.48-8.71S49.3,77.79,49.3,77.79s7.69,27.53,7.92,29c.23.9.48,1.92-1.45,1.92Z"/>
	<path class="path letter" d="M80.94,82.75c-3.23,0-10.85,2.94-10.85,14.22s6.73,13.88,10.85,13.88c3.91,0,10.85-2.59,10.85-13.88S84.07,82.75,80.94,82.75Zm0,27.09s-6.81,0-6.81-13c0-11.79,5.85-12.92,6.81-12.92s6.8,1.13,6.8,12.92C87.74,109.84,80.94,109.84,80.94,109.84Z"/>
	<path class="path letter" d="M83.28,46.86c-2.22,0-7.48,2-7.48,9.8s4.65,9.59,7.48,9.59,7.48-1.79,7.48-9.57S85.44,46.86,83.28,46.86ZM70,47.45a5.59,5.59,0,0,0-2.44-.59c-2.22,0-7.48,2-7.48,9.8s4.65,9.59,7.48,9.59a7.18,7.18,0,0,0,4.38-1.54h1V61.8h-1s-.24,3-4.3,3-4.8-5.19-4.8-8.17S63,48,67.28,48s5.48,4.37,5.54,5.6h1l-1.17-7h-.74S72.58,48.73,70,47.45ZM83.28,65.53s-4.69,0-4.69-9c0-8.13,4-8.9,4.69-8.9s4.7.77,4.7,8.9C88,65.53,83.28,65.53,83.28,65.53Z"/>
	<path class="path letter" d="M99.53,82.75v.79a2.69,2.69,0,0,1,2.49,2.6c0,2.37-4.18,23.36-9.26,23.7v1a4.4,4.4,0,0,0,2.37-.45c.79-.56,4.29-2.71,7.79-21.67h.68s4.51,13.88,5.3,16.48c.34,1.69,0,4.51-1.8,4.51v1.13h2c.9,0,2.14-1.8,2.14-3.83h1.16s1.32,3.83,2.34,3.83h1.13v-1s-1.25.22-2.49-3.16S108,91.22,108,85.91h-1.17v1.92h-.68a29.21,29.21,0,0,0-3.07-4.49C102.56,82.77,99.53,82.75,99.53,82.75Z"/>
	<path class="path letter" d="M172.73,83.77v-1c-5.19,0-5.08,4-5.08,4h-.79c0-3.61-4-4-4-4v.91a3.27,3.27,0,0,1,2.94,3c0,1.47-.12,7.9-.12,7.9h-10.9s-.12-6.43-.12-7.9a3.27,3.27,0,0,1,2.94-3v-.91s-4,.34-4,4h-.79s.11-4-5.08-4v1s3.05.11,3.05,2V107c0,1.58-1,2.7-3.05,2.7v1.13s2.6.91,4.74-3.38c.34-.34.9,0,.9,0s.34,3.38,5,3.38v-1s-3.61-.12-3.61-3.28V96.82h10.9v9.72c0,3.16-3.61,3.28-3.61,3.28v1c4.63,0,5-3.38,5-3.38s.56-.34.9,0c2.14,4.29,4.74,3.38,4.74,3.38v-1.13c-2,0-3-1.12-3-2.7V85.8C169.68,83.88,172.73,83.77,172.73,83.77Z"/>
	<path class="path letter" d="M168.07,47.56v-.7c-3.56,0-3.48,2.74-3.48,2.74h-.54c0-2.51-2.71-2.74-2.71-2.74v.63a2.25,2.25,0,0,1,2,2.11c0,1-.08,5.5-.08,5.5H155.8s-.08-4.48-.08-5.5a2.25,2.25,0,0,1,2-2.11v-.63s-2.7.23-2.7,2.74h-.55s.08-2.74-3.47-2.74v.7s2.08.08,2.08,1.42V63.73a1.83,1.83,0,0,1-1.74,1.9,1.94,1.94,0,0,1-.34,0v.78s1.77.63,3.24-2.35c.23-.23.62,0,.62,0s.23,2.35,3.4,2.35v-.7s-2.47-.08-2.47-2.28V56.65h7.46v6.76c0,2.2-2.47,2.28-2.47,2.28v.7c3.17,0,3.4-2.35,3.4-2.35s.39-.23.62,0c1.47,3,3.25,2.35,3.25,2.35v-.78A1.82,1.82,0,0,1,166,64.08a1.35,1.35,0,0,1,0-.35V49C165.93,47.64,168.07,47.56,168.07,47.56Z"/>
	<path class="path letter" d="M132.86,49c0-1.34-2.08-1.42-2.08-1.42v-.7c3.55,0,3.47,2.74,3.47,2.74h.54c0-2.51,2.71-2.74,2.71-2.74v.63a2.25,2.25,0,0,0-2,2.11c0,1,.08,3.89.08,3.89s-.29,2.53,2,2.53h3.52c1.51,0,1.89-.86,1.89-1.3,0,0,.08-4.1.08-5.12a2.25,2.25,0,0,0-2-2.11v-.63s2.71.23,2.71,2.74h.54s-.08-2.74,3.47-2.74v.7s-2.08.08-2.08,1.42V63.73a1.83,1.83,0,0,0,1.74,1.9,1.94,1.94,0,0,0,.34,0v.78S146.07,67,144.6,64c-.23-.23-.62,0-.62,0s-.23,2.35-3.4,2.35v-.7s2.47-.08,2.47-2.28V56.65s-1.29,1.14-4.37,1.14-5.84-1.71-5.84-4.85C132.82,50.6,132.86,49,132.86,49Z"/>
	<path class="path letter" d="M123.07,50.17V63.41c0,2.2-2.48,2.28-2.48,2.28v.7c3.17,0,3.4-2.35,3.4-2.35s.39-.23.62,0c1.47,3,3.25,2.35,3.25,2.35v-.78a1.84,1.84,0,0,1-2.09-1.88V49c0-1.34,2.09-1.42,2.09-1.42v-.7c-3.56,0-3.48,2.74-3.48,2.74h-.54a2.88,2.88,0,0,0-2.77-2.91s-7.16-1-7.16,4.92c0,3.61,3.55,4.45,4.53,5,0,0-3.71,6.26-4.53,7.8-.27.43-2.18.61-2.18-.06V62.66h-.86v2a2,2,0,0,0,2,1.76c1.35,0,2.4-1.14,4.31-4.77s2.58-5,3.63-5v-.82a3.9,3.9,0,0,1-4.18-3.62,3,3,0,0,1,0-.6c0-3.78,2.33-3.9,4.43-3.9C122.24,47.71,123.07,48.38,123.07,50.17Z"/>
	<path class="path letter" d="M108.84,47.56v-.7c-3.56,0-3.48,2.74-3.48,2.74h-.54c0-2.51-2.71-2.74-2.71-2.74v.63a2.25,2.25,0,0,1,2,2.11c0,1-.07,5.5-.07,5.5H96.57s-.08-4.48-.08-5.5a2.25,2.25,0,0,1,2-2.11v-.63s-2.7.23-2.7,2.74h-.54s.07-2.74-3.48-2.74v.7s2.08.08,2.08,1.42V63.73a1.83,1.83,0,0,1-1.74,1.9,1.94,1.94,0,0,1-.34,0v.78S93.55,67,95,64c.24-.23.62,0,.62,0s.23,2.35,3.4,2.35v-.7s-2.47-.08-2.47-2.28V56.65h7.51v6.76c0,2.2-2.48,2.28-2.48,2.28v.7c3.17,0,3.4-2.35,3.4-2.35s.39-.23.62,0c1.47,3,3.25,2.35,3.25,2.35v-.78a1.84,1.84,0,0,1-2.09-1.88V49C106.75,47.64,108.84,47.56,108.84,47.56Z"/>
	<path class="path letter" d="M209.26,109.5c-.18-.19-1,.33-3.37-8.08s-8.37-32.3-8.37-32.3h-1.25l.37,4h-1.26l-2-4L182.77,104.5s-1.58,3.85-3.21,4.85a3,3,0,0,1-2.79.4v1.11s4.12.76,5.37-3.11h1s.38,3.11,2.38,3.11h2V110s-2.88-.13-2.88-2.25c0-3.5,3-12.88,3-12.88h8.88s2.25,8,2.87,9.63,1,5-.75,5h-2.87v1.36h4.62c1.75,0,3.25-1.36,3.25-4h.88s1.75,4.06,4,4.06h3.55v-1.43A13.89,13.89,0,0,1,209.26,109.5ZM188.75,91.64l3.53-12.1,3.54,12.1Z"/>
	<path class="path letter" d="M186.34,65.77c-.09-.08-.47.16-1.59-3.82s-4-15.26-4-15.26h-.59l.18,1.89h-.6l-.94-1.89-5,16.72a6.49,6.49,0,0,1-1.51,2.29,1.37,1.37,0,0,1-1.32.19v.53A2.24,2.24,0,0,0,173.51,65H174s.18,1.47,1.12,1.47h1V66S174.71,66,174.71,65a33.43,33.43,0,0,1,1.41-6.09h4.2s1.06,3.78,1.36,4.55.47,2.36-.36,2.36H180v.65h2.19c.83,0,1.54-.65,1.54-1.89h.38s.83,1.92,1.89,1.92h1.65v-.68A6.74,6.74,0,0,1,186.34,65.77Zm-9.69-8.44,1.67-5.72L180,57.33Z"/>
</svg>