<!DOCTYPE svg PUBLIC "-//W3C//DTD SVG 20010904//EN" "http://www.w3.org/TR/2001/REC-SVG-20010904/DTD/svg10.dtd">
<svg version="1.0" xmlns="http://www.w3.org/2000/svg" width="1024px" height="218px" viewBox="0 0 10240 2180" preserveAspectRatio="xMidYMid meet">
<g id="layer101" fill="#215a80" stroke="none">
 <path d="M880 2165 c-480 -96 -831 -490 -871 -980 -42 -504 256 -958 735 -1121 219 -75 503 -72 717 6 369 134 632 442 704 823 19 102 19 302 0 404 -84 441 -413 773 -860 868 -87 18 -334 18 -425 0z"/>
 <path d="M2941 1625 c-194 -43 -341 -180 -397 -370 -21 -74 -24 -228 -5 -305 46 -189 191 -336 377 -384 78 -20 222 -21 299 -1 114 29 243 110 230 143 -3 8 -26 48 -52 89 l-45 74 -34 -26 c-60 -46 -143 -78 -213 -82 -242 -17 -402 240 -296 475 60 135 196 207 338 181 69 -12 144 -46 199 -90 20 -16 39 -29 41 -29 3 0 10 21 16 46 7 26 23 69 38 97 l25 51 -28 23 c-49 40 -166 93 -239 108 -86 18 -170 18 -254 0z"/>
 <path d="M3835 1630 c-107 -23 -216 -85 -267 -152 -159 -209 -111 -509 103 -644 235 -148 574 -57 687 183 25 53 27 68 27 183 0 115 -2 130 -27 182 -29 63 -103 148 -158 183 -93 58 -259 88 -365 65z m221 -216 c30 -18 60 -48 79 -79 27 -44 30 -56 30 -134 0 -95 -12 -126 -66 -180 -43 -43 -82 -62 -144 -68 -141 -15 -260 101 -258 251 1 67 31 143 75 183 75 70 196 82 284 27z"/>
 <path d="M5352 1629 c-59 -11 -143 -51 -192 -90 -162 -131 -199 -403 -80 -589 113 -176 375 -240 572 -140 l58 30 0 -30 0 -30 105 0 105 0 0 420 0 420 -105 0 -105 0 0 -28 0 -29 -57 29 c-92 45 -197 58 -301 37z m187 -195 c173 -51 226 -285 95 -418 -95 -96 -270 -86 -350 20 -76 99 -67 264 18 340 76 69 144 86 237 58z"/>
 <path d="M7681 1624 c-290 -78 -412 -417 -243 -673 47 -71 136 -136 224 -162 55 -17 88 -21 162 -17 84 3 102 8 169 41 50 25 90 53 116 84 l41 46 0 -82 0 -81 40 0 40 0 0 420 0 420 -40 0 -40 0 0 -71 0 -72 -49 46 c-109 102 -271 141 -420 101z m244 -85 c77 -29 154 -102 191 -181 25 -55 29 -75 29 -153 0 -78 -4 -98 -28 -150 -74 -158 -239 -241 -398 -201 -124 32 -231 137 -259 256 -19 78 -9 187 23 252 80 163 273 240 442 177z"/>
 <path d="M9433 1629 c-155 -30 -279 -142 -324 -291 -18 -58 -21 -88 -17 -172 4 -88 9 -112 36 -169 41 -89 109 -159 191 -200 63 -31 70 -32 186 -32 113 0 123 2 178 30 119 59 184 169 194 323 l6 82 -357 0 c-218 0 -356 4 -356 10 0 5 5 33 11 62 25 116 96 209 198 257 48 22 69 26 146 26 101 0 152 -17 225 -76 39 -32 41 -32 55 -13 40 53 28 72 -80 124 -94 46 -192 59 -292 39z m357 -529 c0 -88 -79 -202 -168 -243 -72 -33 -180 -30 -254 6 -71 35 -140 110 -167 183 -35 91 -60 84 284 84 l305 0 0 -30z"/>
 <path d="M6239 1616 c-68 -18 -108 -52 -138 -115 l-26 -56 -3 -472 -3 -473 110 0 110 0 3 446 3 446 28 24 c15 13 39 24 53 24 24 0 24 1 24 89 0 72 -3 90 -16 95 -25 9 -95 6 -145 -8z"/>
 <path d="M6732 1615 c-94 -29 -154 -110 -172 -231 -5 -38 -10 -241 -10 -451 l0 -383 45 0 45 0 0 115 0 115 110 0 110 0 0 40 0 40 -111 0 -110 0 3 273 3 274 30 48 c36 59 98 95 162 95 42 0 43 1 43 34 0 22 -6 36 -16 40 -25 10 -86 6 -132 -9z"/>
 <path d="M10135 1615 c-47 -16 -90 -64 -99 -107 -3 -17 -6 -250 -6 -519 l0 -489 40 0 39 0 3 489 c3 478 3 490 24 518 14 18 35 31 63 38 40 9 42 10 39 45 -3 31 -6 35 -33 37 -16 2 -48 -4 -70 -12z"/>
 <path d="M4490 1200 l0 -420 105 0 105 0 0 77 0 76 29 -41 c54 -73 145 -122 227 -122 l44 0 0 108 0 107 -57 0 c-73 0 -127 27 -170 84 -55 71 -65 122 -70 349 l-5 202 -104 0 -104 0 0 -420z"/>
 <path d="M6990 1200 l0 -420 40 0 40 0 0 88 1 87 19 -36 c23 -44 101 -116 145 -135 19 -8 62 -14 95 -14 l60 0 0 40 c0 38 -1 40 -31 40 -126 0 -243 121 -278 288 -6 29 -11 150 -11 267 l0 215 -40 0 -40 0 0 -420z"/>
 <path d="M8503 1207 c-90 -227 -163 -416 -163 -420 0 -4 19 -7 43 -7 l44 0 113 288 c63 158 126 320 141 361 24 69 27 72 33 45 4 -16 66 -179 138 -361 l131 -333 45 0 c38 0 43 2 38 18 -4 9 -77 198 -164 419 l-157 403 -40 0 -40 0 -162 -413z"/>
 </g>
<g id="layer102" fill="#63933f" stroke="none">
 <path d="M289 1833 c-350 -375 -381 -978 -70 -1391 134 -177 313 -306 525 -378 219 -75 503 -72 717 6 369 134 632 442 704 823 8 43 15 83 15 88 0 5 -22 9 -50 9 l-50 0 0 65 0 65 50 0 50 0 0 48 c0 44 -14 143 -26 185 -5 16 -46 17 -657 19 -359 2 -514 4 -344 5 l307 3 0 255 0 255 -556 2 -556 3 -59 -62z"/>
 <path d="M2941 1625 c-194 -43 -341 -180 -397 -370 -21 -74 -24 -228 -5 -305 46 -189 191 -336 377 -384 78 -20 222 -21 299 -1 114 29 243 110 230 143 -3 8 -26 48 -52 89 l-45 74 -34 -26 c-60 -46 -143 -78 -213 -82 -242 -17 -402 240 -296 475 60 135 196 207 338 181 69 -12 144 -46 199 -90 20 -16 39 -29 41 -29 3 0 10 21 16 46 7 26 23 69 38 97 l25 51 -28 23 c-49 40 -166 93 -239 108 -86 18 -170 18 -254 0z"/>
 <path d="M3835 1630 c-107 -23 -216 -85 -267 -152 -159 -209 -111 -509 103 -644 235 -148 574 -57 687 183 25 53 27 68 27 183 0 115 -2 130 -27 182 -29 63 -103 148 -158 183 -93 58 -259 88 -365 65z m221 -216 c30 -18 60 -48 79 -79 27 -44 30 -56 30 -134 0 -95 -12 -126 -66 -180 -43 -43 -82 -62 -144 -68 -141 -15 -260 101 -258 251 1 67 31 143 75 183 75 70 196 82 284 27z"/>
 <path d="M5352 1629 c-59 -11 -143 -51 -192 -90 -162 -131 -199 -403 -80 -589 113 -176 375 -240 572 -140 l58 30 0 -30 0 -30 105 0 105 0 0 420 0 420 -105 0 -105 0 0 -28 0 -29 -57 29 c-92 45 -197 58 -301 37z m187 -195 c173 -51 226 -285 95 -418 -95 -96 -270 -86 -350 20 -76 99 -67 264 18 340 76 69 144 86 237 58z"/>
 <path d="M7681 1624 c-290 -78 -412 -417 -243 -673 47 -71 136 -136 224 -162 55 -17 88 -21 162 -17 84 3 102 8 169 41 50 25 90 53 116 84 l41 46 0 -82 0 -81 40 0 40 0 0 420 0 420 -40 0 -40 0 0 -71 0 -72 -49 46 c-109 102 -271 141 -420 101z m244 -85 c77 -29 154 -102 191 -181 25 -55 29 -75 29 -153 0 -78 -4 -98 -28 -150 -74 -158 -239 -241 -398 -201 -124 32 -231 137 -259 256 -19 78 -9 187 23 252 80 163 273 240 442 177z"/>
 <path d="M9433 1629 c-155 -30 -279 -142 -324 -291 -18 -58 -21 -88 -17 -172 4 -88 9 -112 36 -169 41 -89 109 -159 191 -200 63 -31 70 -32 186 -32 113 0 123 2 178 30 119 59 184 169 194 323 l6 82 -357 0 c-218 0 -356 4 -356 10 0 5 5 33 11 62 25 116 96 209 198 257 48 22 69 26 146 26 101 0 152 -17 225 -76 39 -32 41 -32 55 -13 40 53 28 72 -80 124 -94 46 -192 59 -292 39z m357 -529 c0 -88 -79 -202 -168 -243 -72 -33 -180 -30 -254 6 -71 35 -140 110 -167 183 -35 91 -60 84 284 84 l305 0 0 -30z"/>
 <path d="M6239 1616 c-68 -18 -108 -52 -138 -115 l-26 -56 -3 -472 -3 -473 110 0 110 0 3 446 3 446 28 24 c15 13 39 24 53 24 24 0 24 1 24 89 0 72 -3 90 -16 95 -25 9 -95 6 -145 -8z"/>
 <path d="M6732 1615 c-94 -29 -154 -110 -172 -231 -5 -38 -10 -241 -10 -451 l0 -383 45 0 45 0 0 115 0 115 110 0 110 0 0 40 0 40 -111 0 -110 0 3 273 3 274 30 48 c36 59 98 95 162 95 42 0 43 1 43 34 0 22 -6 36 -16 40 -25 10 -86 6 -132 -9z"/>
 <path d="M10135 1615 c-47 -16 -90 -64 -99 -107 -3 -17 -6 -250 -6 -519 l0 -489 40 0 39 0 3 489 c3 478 3 490 24 518 14 18 35 31 63 38 40 9 42 10 39 45 -3 31 -6 35 -33 37 -16 2 -48 -4 -70 -12z"/>
 <path d="M4490 1200 l0 -420 105 0 105 0 0 77 0 76 29 -41 c54 -73 145 -122 227 -122 l44 0 0 108 0 107 -57 0 c-73 0 -127 27 -170 84 -55 71 -65 122 -70 349 l-5 202 -104 0 -104 0 0 -420z"/>
 <path d="M6990 1200 l0 -420 40 0 40 0 0 88 1 87 19 -36 c23 -44 101 -116 145 -135 19 -8 62 -14 95 -14 l60 0 0 40 c0 38 -1 40 -31 40 -126 0 -243 121 -278 288 -6 29 -11 150 -11 267 l0 215 -40 0 -40 0 0 -420z"/>
 <path d="M8503 1207 c-90 -227 -163 -416 -163 -420 0 -4 19 -7 43 -7 l44 0 113 288 c63 158 126 320 141 361 24 69 27 72 33 45 4 -16 66 -179 138 -361 l131 -333 45 0 c38 0 43 2 38 18 -4 9 -77 198 -164 419 l-157 403 -40 0 -40 0 -162 -413z"/>
 </g>
<g id="layer103" fill="#128bc8" stroke="none">
 <path d="M289 1833 c-350 -375 -381 -978 -70 -1391 166 -219 402 -365 674 -417 101 -19 290 -19 400 0 380 66 707 348 833 719 22 62 58 226 52 231 -4 3 -522 15 -655 15 l-113 0 0 65 0 65 385 0 385 0 0 48 c0 44 -14 143 -26 185 -5 16 -46 17 -657 19 -359 2 -514 4 -344 5 l307 3 0 255 0 255 -556 2 -556 3 -59 -62z"/>
 <path d="M2941 1625 c-194 -43 -341 -180 -397 -370 -21 -74 -24 -228 -5 -305 46 -189 191 -336 377 -384 78 -20 222 -21 299 -1 114 29 243 110 230 143 -3 8 -26 48 -52 89 l-45 74 -34 -26 c-60 -46 -143 -78 -213 -82 -242 -17 -402 240 -296 475 60 135 196 207 338 181 69 -12 144 -46 199 -90 20 -16 39 -29 41 -29 3 0 10 21 16 46 7 26 23 69 38 97 l25 51 -28 23 c-49 40 -166 93 -239 108 -86 18 -170 18 -254 0z"/>
 <path d="M3835 1630 c-107 -23 -216 -85 -267 -152 -159 -209 -111 -509 103 -644 235 -148 574 -57 687 183 25 53 27 68 27 183 0 115 -2 130 -27 182 -29 63 -103 148 -158 183 -93 58 -259 88 -365 65z m221 -216 c30 -18 60 -48 79 -79 27 -44 30 -56 30 -134 0 -95 -12 -126 -66 -180 -43 -43 -82 -62 -144 -68 -141 -15 -260 101 -258 251 1 67 31 143 75 183 75 70 196 82 284 27z"/>
 <path d="M5352 1629 c-59 -11 -143 -51 -192 -90 -162 -131 -199 -403 -80 -589 113 -176 375 -240 572 -140 l58 30 0 -30 0 -30 105 0 105 0 0 420 0 420 -105 0 -105 0 0 -28 0 -29 -57 29 c-92 45 -197 58 -301 37z m187 -195 c173 -51 226 -285 95 -418 -95 -96 -270 -86 -350 20 -76 99 -67 264 18 340 76 69 144 86 237 58z"/>
 <path d="M7681 1624 c-290 -78 -412 -417 -243 -673 47 -71 136 -136 224 -162 55 -17 88 -21 162 -17 84 3 102 8 169 41 50 25 90 53 116 84 l41 46 0 -82 0 -81 40 0 40 0 0 420 0 420 -40 0 -40 0 0 -71 0 -72 -49 46 c-109 102 -271 141 -420 101z m244 -85 c77 -29 154 -102 191 -181 25 -55 29 -75 29 -153 0 -78 -4 -98 -28 -150 -74 -158 -239 -241 -398 -201 -124 32 -231 137 -259 256 -19 78 -9 187 23 252 80 163 273 240 442 177z"/>
 <path d="M9433 1629 c-155 -30 -279 -142 -324 -291 -18 -58 -21 -88 -17 -172 4 -88 9 -112 36 -169 41 -89 109 -159 191 -200 63 -31 70 -32 186 -32 113 0 123 2 178 30 119 59 184 169 194 323 l6 82 -357 0 c-218 0 -356 4 -356 10 0 5 5 33 11 62 25 116 96 209 198 257 48 22 69 26 146 26 101 0 152 -17 225 -76 39 -32 41 -32 55 -13 40 53 28 72 -80 124 -94 46 -192 59 -292 39z m357 -529 c0 -88 -79 -202 -168 -243 -72 -33 -180 -30 -254 6 -71 35 -140 110 -167 183 -35 91 -60 84 284 84 l305 0 0 -30z"/>
 <path d="M6239 1616 c-68 -18 -108 -52 -138 -115 l-26 -56 -3 -472 -3 -473 110 0 110 0 3 446 3 446 28 24 c15 13 39 24 53 24 24 0 24 1 24 89 0 72 -3 90 -16 95 -25 9 -95 6 -145 -8z"/>
 <path d="M6732 1615 c-94 -29 -154 -110 -172 -231 -5 -38 -10 -241 -10 -451 l0 -383 45 0 45 0 0 115 0 115 110 0 110 0 0 40 0 40 -111 0 -110 0 3 273 3 274 30 48 c36 59 98 95 162 95 42 0 43 1 43 34 0 22 -6 36 -16 40 -25 10 -86 6 -132 -9z"/>
 <path d="M10135 1615 c-47 -16 -90 -64 -99 -107 -3 -17 -6 -250 -6 -519 l0 -489 40 0 39 0 3 489 c3 478 3 490 24 518 14 18 35 31 63 38 40 9 42 10 39 45 -3 31 -6 35 -33 37 -16 2 -48 -4 -70 -12z"/>
 <path d="M4490 1200 l0 -420 105 0 105 0 0 77 0 76 29 -41 c54 -73 145 -122 227 -122 l44 0 0 108 0 107 -57 0 c-73 0 -127 27 -170 84 -55 71 -65 122 -70 349 l-5 202 -104 0 -104 0 0 -420z"/>
 <path d="M6990 1200 l0 -420 40 0 40 0 0 88 1 87 19 -36 c23 -44 101 -116 145 -135 19 -8 62 -14 95 -14 l60 0 0 40 c0 38 -1 40 -31 40 -126 0 -243 121 -278 288 -6 29 -11 150 -11 267 l0 215 -40 0 -40 0 0 -420z"/>
 <path d="M8503 1207 c-90 -227 -163 -416 -163 -420 0 -4 19 -7 43 -7 l44 0 113 288 c63 158 126 320 141 361 24 69 27 72 33 45 4 -16 66 -179 138 -361 l131 -333 45 0 c38 0 43 2 38 18 -4 9 -77 198 -164 419 l-157 403 -40 0 -40 0 -162 -413z"/>
 </g>
<g id="layer104" fill="#d1612f" stroke="none">
 <path d="M289 1833 c-350 -375 -381 -978 -70 -1391 166 -219 402 -365 674 -417 101 -19 290 -19 400 0 380 66 707 348 833 719 22 62 58 226 52 231 -4 3 -522 15 -655 15 l-113 0 0 65 0 65 385 0 385 0 0 48 c0 44 -14 143 -26 185 -5 16 -46 17 -657 19 -359 1 -619 4 -579 5 l72 4 0 254 0 254 -321 3 -321 3 -59 -62z"/>
 </g>
<g id="layer105" fill="#ed9e20" stroke="none">
 <path d="M289 1833 c-68 -74 -124 -153 -169 -243 -30 -59 -80 -192 -80 -212 0 -10 689 -11 843 -1 l107 6 0 253 0 253 -321 3 -321 3 -59 -62z"/>
 <path d="M21 1295 c-3 -23 -5 -41 -15 -150 -9 -98 7 -240 40 -355 31 -107 110 -268 169 -342 l45 -58 255 0 255 0 0 -169 0 -169 73 -18 c105 -25 328 -30 443 -10 303 52 588 247 740 506 l44 75 -140 3 -140 3 0 183 0 183 -52 7 c-29 3 -115 6 -190 6 l-138 0 0 65 0 65 -252 2 c-139 0 -257 2 -263 3 -5 2 -202 3 -437 4 l-427 1 -4 93 c-1 50 -4 83 -6 72z"/>
 </g>
<g id="layer106" fill="#61a3cc" stroke="none">
 <path d="M289 1833 c-68 -74 -124 -153 -169 -243 -30 -59 -80 -192 -80 -212 0 -10 689 -11 843 -1 l107 6 0 253 0 253 -321 3 -321 3 -59 -62z"/>
 <path d="M21 1295 c-10 -63 -11 -92 -13 -210 -1 -148 15 -239 66 -376 36 -98 101 -215 150 -273 l33 -39 811 -5 812 -5 0 -21 c0 -32 90 69 145 162 l45 77 -310 3 -310 2 0 185 0 184 138 4 137 3 -157 2 -158 2 0 65 0 65 -208 0 c-115 0 -425 3 -690 7 l-481 6 -4 91 c-1 50 -4 82 -6 71z"/>
 </g>
<g id="layer107" fill="#ecd168" stroke="none">
 <path d="M289 1833 c-68 -74 -124 -153 -169 -243 -30 -59 -80 -192 -80 -212 0 -4 177 -7 393 -6 215 1 341 4 280 5 l-113 4 0 254 0 254 -126 3 -126 3 -59 -62z"/>
 <path d="M21 1295 c-10 -63 -11 -92 -13 -210 -1 -148 15 -239 66 -376 36 -98 101 -215 150 -273 l33 -39 811 -5 812 -5 0 -21 c0 -32 90 69 145 162 l45 77 -310 3 -310 2 0 185 0 184 138 4 137 3 -157 2 -158 2 0 65 0 65 -208 0 c-115 0 -425 3 -690 7 l-481 6 -4 91 c-1 50 -4 82 -6 71z"/>
 </g>
<g id="layer108" fill="#9fbed2" stroke="none">
 <path d="M289 1833 c-68 -74 -124 -153 -169 -243 -38 -75 -83 -201 -74 -209 3 -3 177 -6 387 -7 210 0 334 1 275 3 l-108 4 0 254 0 254 -126 3 -126 3 -59 -62z"/>
 <path d="M0 1090 c0 -114 33 -276 82 -402 l29 -78 170 0 169 0 0 184 0 184 -40 7 -40 7 0 63 0 64 -185 3 -185 3 0 -35z"/>
 <path d="M1580 505 l0 -105 179 0 179 0 35 48 c19 26 49 73 67 105 l32 57 -246 0 -246 0 0 -105z"/>
 </g>
<g id="layer109" fill="#ece7d4" stroke="none">
 <path d="M96 1538 c-14 -29 -56 -146 -56 -155 0 -1 18 -3 40 -3 l40 0 0 95 c0 52 -2 95 -5 95 -2 0 -11 -15 -19 -32z"/>
 <path d="M0 1090 c0 -114 33 -276 82 -402 l29 -78 170 0 169 0 0 184 0 184 -40 7 -40 7 0 63 0 64 -185 3 -185 3 0 -35z"/>
 <path d="M1580 505 l0 -105 179 0 179 0 31 42 c27 36 31 50 31 105 l0 63 -210 0 -210 0 0 -105z"/>
 </g>

</svg>