<?xml version="1.0" encoding="utf-8"?>
<!-- Generator: Adobe Illustrator 22.0.1, SVG Export Plug-In . SVG Version: 6.00 Build 0)  -->
<svg version="1.1" id="Ebene_1" xmlns="http://www.w3.org/2000/svg" xmlns:xlink="http://www.w3.org/1999/xlink" x="0px" y="0px"
	 viewBox="0 0 228.2 228.2" style="enable-background:new 0 0 228.2 228.2;" xml:space="preserve">
<style type="text/css">
	.st0{fill:#D05559;}
	.st1{fill:#722282;}
	.st2{fill:#742282;}
</style>
<g>
	<path class="st0" d="M173.7,98.5c0-32.8-26.4-59.2-59.2-59.2S55.4,65.7,55.4,98.5s26.4,59.2,59.2,59.2c16.4,0,29.8-13.4,29.8-29.8
		s-13.4-29.8-29.8-29.8v14.7c8,0,14.7,6.7,14.7,14.7s-6.7,14.7-14.7,14.7c-24.4,0-44.5-20.1-44.5-44.5s19.7-44.5,44.5-44.5
		c24.4,0,44.5,20.1,44.5,44.5c0,8.4-2.3,16-6.4,22.7c0.3,2.3,0.7,4.7,0.7,7c0,7-1.7,13.4-5,19.1C163.7,136.2,173.7,118.5,173.7,98.5
		 M99.5,98.5c0-8,6.7-14.7,14.7-14.7s14.7,6.7,14.7,14.7h14.7c0-16.4-13.4-29.8-29.8-29.8S84.1,82.1,84.1,98.5s13.4,29.8,29.8,29.8
		v-14.7C106.2,113.5,99.5,106.8,99.5,98.5"/>
	<path class="st1" d="M114.5,158L114.5,158c16.4,0,29.8-13.4,29.8-29.8s-13.4-29.8-29.8-29.8v14.7c8,0,14.7,6.7,14.7,14.7
		c0,8-6.7,14.7-14.7,14.7V158z M99.5,98.5c0-8,6.7-14.7,14.7-14.7s14.7,6.7,14.7,14.7h14.7c0-16.4-13.4-29.8-29.8-29.8
		S84.1,82.1,84.1,98.5s13.4,29.8,29.8,29.8v-14.7C106.2,113.5,99.5,106.8,99.5,98.5"/>
	<path class="st2" d="M177.4,154.3c13-14.7,21.1-34.1,21.1-55.5c0-46.8-37.4-84.2-83.9-84.2S30.3,52,30.3,98.5
		c0,21.4,8,40.8,21.1,55.5h3.3C41,139.3,32.6,119.9,32.6,98.5c0-45.1,36.4-81.6,81.6-81.6s81.6,36.4,81.6,81.6
		c0,21.4-8.4,41.1-21.7,55.5h3.3V154.3z"/>
	<path class="st1" d="M208.8,198.1c-5,0-8.7-3.7-8.7-8.7s3.7-8.7,8.7-8.7s8.7,3.7,8.7,8.7S213.8,198.1,208.8,198.1 M208.8,200.8
		c6.7,0,11.7-4.7,11.7-11.4s-5-11.4-11.7-11.4s-11.7,5-11.7,11.4C196.7,196.1,201.8,200.8,208.8,200.8 M173.7,200.4h3.3v-22.1h-3.3
		V200.4z M139.9,200.4h15.4v-2.7h-12v-19.4h-3.3V200.4z M115.2,200.4h3.3v-22.1h-3.3V200.4z M93.5,200.4V178h-2.7l-9.4,16l-9.4-15.7
		h-2.7v22.4h3v-16l8,13.4h1.3l8-13.4v16.4h3.7V200.4z M44.7,200.4H48v-22.1h-3.3V200.4z M16.6,200.8c6,0,8.7-3,8.7-6.4
		c0-8-13.4-4.7-13.4-10.4c0-2,1.7-3.7,5.3-3.7c2,0,4,0.7,6,1.7l1-2.7c-2-1.3-4.7-2-7-2c-6,0-8.4,3-8.4,6.4c0,8.4,13.4,4.7,13.4,10.4
		c0,2-1.7,3.3-5.3,3.3c-3,0-5.7-1-7.4-2.7l-1.7,3.3C9.6,199.8,12.9,200.8,16.6,200.8"/>
</g>
</svg>
