<?xml version="1.0" encoding="UTF-8"?>
<svg xmlns="http://www.w3.org/2000/svg" xmlns:xlink="http://www.w3.org/1999/xlink" width="528pt" height="162pt" viewBox="0 0 528 162" version="1.1">
<g id="surface1">
<path style=" stroke:none;fill-rule:evenodd;fill:rgb(1.599121%,30.999756%,63.899231%);fill-opacity:1;" d="M 419.382813 89.257813 L 433.566406 89.257813 L 433.566406 160.84375 L 419.382813 160.84375 Z M 391.808594 22.402344 C 391.722656 20.894531 392.402344 19.910156 393.609375 19.273438 L 404.726563 25.378906 C 404.914063 21.605469 405.101563 17.835938 405.28125 14.066406 C 406.316406 13.34375 407.28125 13.410156 408.167969 14.261719 L 408.621094 27.183594 L 423.679688 35.539063 L 423.972656 18.28125 C 420.324219 15.992188 416.667969 13.710938 413.015625 11.429688 C 412.910156 10.363281 413.179688 9.445313 414.289063 8.828125 L 424.359375 14.003906 C 424.453125 9.777344 424.542969 5.550781 424.632813 1.324219 C 425.894531 0.503906 427.089844 0.597656 428.242188 1.324219 L 428.519531 14.003906 C 431.875 12.277344 435.230469 10.554688 438.589844 8.828125 C 439.734375 9.359375 440.160156 10.226563 439.863281 11.429688 L 428.902344 18.28125 L 429.195313 35.496094 L 444.289063 27.121094 C 444.445313 22.8125 444.589844 18.511719 444.742188 14.203125 C 445.609375 13.578125 446.539063 13.351563 447.632813 14.007813 L 448.183594 25.316406 C 451.890625 23.285156 455.597656 21.25 459.300781 19.21875 C 460.644531 19.894531 461.160156 20.984375 461.101563 22.34375 L 450.265625 28.921875 C 453.433594 30.964844 456.605469 33.007813 459.777344 35.054688 C 459.890625 36.308594 459.351563 37.113281 458.167969 37.453125 L 446.753906 31.390625 L 431.988281 40.253906 L 446.789063 49.136719 C 450.59375 47.117188 454.398438 45.09375 458.203125 43.070313 C 459.175781 43.507813 459.832031 44.203125 459.8125 45.472656 L 450.300781 51.605469 C 453.910156 53.796875 457.523438 55.992188 461.140625 58.183594 C 461.226563 59.6875 460.542969 60.679688 459.335938 61.304688 L 448.21875 55.210938 C 448.03125 58.976563 447.847656 62.746094 447.664063 66.515625 C 446.628906 67.246094 445.667969 67.179688 444.777344 66.320313 L 444.324219 53.402344 L 429.265625 45.046875 L 428.972656 62.308594 C 432.621094 64.589844 436.28125 66.871094 439.933594 69.160156 C 440.039063 70.21875 439.769531 71.140625 438.660156 71.757813 L 428.589844 66.578125 C 428.496094 70.804688 428.402344 75.03125 428.316406 79.257813 C 427.054688 80.085938 425.855469 79.992188 424.707031 79.257813 L 424.425781 66.578125 C 421.074219 68.304688 417.71875 70.03125 414.359375 71.757813 C 413.214844 71.222656 412.789063 70.359375 413.082031 69.160156 L 424.042969 62.308594 L 423.753906 45.085938 L 408.65625 53.464844 C 408.503906 57.765625 408.359375 62.078125 408.203125 66.378906 C 407.339844 67.003906 406.410156 67.226563 405.316406 66.574219 L 404.761719 55.265625 C 401.058594 57.300781 397.351563 59.335938 393.644531 61.367188 C 392.300781 60.6875 391.785156 59.609375 391.84375 58.242188 L 402.683594 51.667969 C 399.515625 49.625 396.339844 47.578125 393.171875 45.535156 C 393.054688 44.273438 393.597656 43.476563 394.777344 43.128906 L 406.191406 49.199219 L 420.960938 40.332031 L 406.15625 31.449219 C 402.351563 33.472656 398.550781 35.492188 394.746094 37.511719 C 393.769531 37.078125 393.113281 36.382813 393.136719 35.109375 L 402.648438 28.980469 C 399.035156 26.785156 395.421875 24.597656 391.808594 22.402344 Z M 266.492188 70.53125 C 278.941406 63.765625 297.667969 58.558594 319.082031 60.3125 C 340.796875 62.089844 365.058594 69.644531 401.484375 94.71875 C 382.523438 73.960938 345.878906 33.558594 306.308594 34.191406 C 280.558594 34.601563 262.304688 52.1875 254.5625 59.355469 C 241.953125 48.589844 227.597656 39.691406 213.054688 37.433594 C 187.902344 33.53125 168.398438 51.855469 158.742188 63.371094 C 149.214844 52.660156 137.449219 44.117188 124.246094 44.117188 C 104.964844 44.117188 91.089844 66.53125 85.769531 92.1875 C 94.667969 77.367188 106.351563 65.289063 126.402344 65.164063 C 143.65625 65.054688 162.023438 76.8125 178.144531 92.292969 C 175.421875 87.058594 171.828125 80.800781 167.492188 74.5625 C 176.082031 68.300781 189.230469 61.605469 205.796875 61.621094 C 237.453125 61.648438 263.464844 75.226563 290.0625 98.398438 C 284.703125 91.097656 276.484375 80.703125 266.492188 70.53125 Z M 397.328125 133.085938 C 397.347656 128.929688 396.195313 125.90625 394.605469 124.3125 C 392.992188 122.707031 391.136719 121.582031 388.359375 121.585938 C 384.835938 121.589844 383.042969 123.265625 381.195313 125.53125 C 379.886719 127.136719 379.035156 129.804688 378.871094 133.085938 Z M 411.390625 141.238281 L 378.820313 141.15625 C 378.660156 144.507813 379.78125 147.371094 381.171875 149.207031 C 382.90625 151.484375 385.28125 152.40625 388.1875 152.40625 C 390.0625 152.40625 392.527344 151.914063 394.296875 150.835938 C 395.59375 150.046875 397.472656 148.203125 398.28125 146.199219 L 410.058594 149.40625 C 408.015625 153.859375 404.765625 156.644531 401.503906 158.761719 C 398.253906 160.875 394.132813 161.929688 388.039063 161.929688 C 382.753906 161.929688 378.546875 161.109375 375.558594 159.21875 C 372.53125 157.292969 369.535156 153.96875 367.980469 151.125 C 365.835938 147.199219 364.160156 142.335938 364.464844 136.253906 C 364.789063 129.746094 366.742188 123.25 370.6875 118.683594 C 375.078125 113.609375 381.847656 111.140625 387.5625 111.140625 C 393.058594 111.140625 397.136719 112.320313 400.433594 114.425781 C 403.742188 116.523438 406.703125 119.273438 408.746094 123.628906 C 410.539063 127.457031 411.710938 132.652344 411.472656 139.046875 Z M 310.960938 112.246094 L 326.40625 112.246094 L 337.53125 145.917969 L 348.9375 112.246094 L 363.851563 112.246094 L 344.644531 160.84375 L 329.785156 160.84375 Z M 277.570313 136.628906 C 277.570313 141.441406 278.417969 144.746094 280.136719 147.261719 C 281.574219 149.371094 283.496094 150.71875 286.261719 150.71875 C 289.027344 150.71875 290.992188 149.390625 292.394531 147.3125 C 294.085938 144.816406 294.921875 141.441406 294.921875 136.417969 C 294.921875 131.757813 294.082031 128.515625 292.382813 126.003906 C 290.96875 123.921875 289.140625 122.597656 286.40625 122.597656 C 283.675781 122.597656 281.59375 123.941406 280.148438 126.058594 C 278.421875 128.601563 277.570313 131.894531 277.570313 136.628906 Z M 262.214844 136.703125 C 262.214844 129.808594 264.25 124.042969 269.054688 118.355469 C 273.179688 113.460938 278.96875 111.140625 286.140625 111.140625 C 294.351563 111.140625 300.617188 113.921875 304.746094 119.601563 C 308.671875 125.011719 310.316406 130.261719 310.316406 136.460938 C 310.316406 143.414063 308.277344 149.175781 303.53125 154.777344 C 299.445313 159.613281 293.570313 161.929688 286.183594 161.929688 C 279.601563 161.929688 274.160156 160.058594 270.214844 155.980469 C 264.625 150.21875 262.214844 144.125 262.214844 136.703125 Z M 203.777344 160.84375 L 190.277344 160.84375 L 190.277344 154.382813 C 187.496094 157.402344 186.015625 158.507813 183.644531 159.875 C 181.265625 161.242188 178.933594 162.074219 175.484375 161.929688 C 171.792969 161.789063 168.667969 160.851563 165.585938 157.929688 C 162.648438 155.160156 161.070313 149.546875 161.070313 143.171875 L 161.070313 112.246094 L 174.289063 112.246094 L 174.289063 138.972656 C 174.289063 143.300781 174.957031 146.082031 176.554688 147.953125 C 177.867188 149.503906 180.164063 149.722656 182.046875 149.472656 C 183.128906 149.332031 184.546875 148.6875 185.902344 147.625 C 187.09375 146.699219 188.382813 144.683594 188.761719 143.195313 C 189.265625 141.238281 189.59375 139.007813 189.59375 135.628906 L 189.59375 112.246094 L 203.777344 112.246094 Z M 121.273438 136.410156 C 121.273438 140.578125 122.175781 143.488281 123.382813 145.484375 C 125.019531 148.207031 126.59375 149.125 128.765625 149.328125 C 131.6875 149.601563 134.042969 148.292969 135.472656 146.320313 C 136.894531 144.359375 137.898438 140.925781 137.898438 136.21875 C 137.898438 132 137.105469 128.832031 135.753906 126.894531 C 134.066406 124.476563 131.234375 123.789063 129.003906 124.019531 C 126.742188 124.265625 124.867188 125.039063 123.425781 127.082031 C 121.984375 129.121094 121.273438 132.21875 121.273438 136.410156 Z M 107.195313 89.257813 L 121.386719 89.257813 L 121.386719 116.992188 C 123.058594 115.042969 124.96875 113.585938 127.09375 112.605469 C 129.214844 111.632813 131.578125 111.097656 134.160156 111.140625 C 139.328125 111.214844 143.609375 113.371094 147.265625 117.59375 C 150.363281 121.175781 153.082031 128.664063 153.082031 135.847656 C 153.082031 141.15625 152.273438 145.84375 150.6875 149.871094 C 149.097656 153.921875 146.65625 156.515625 143.617188 158.933594 C 141.140625 160.902344 137.675781 161.929688 134.230469 161.929688 C 131.296875 161.929688 128.609375 161.234375 126.164063 159.839844 C 124.320313 158.734375 122.328125 156.667969 120.148438 153.65625 L 120.148438 160.84375 L 107.195313 160.84375 Z M 215.113281 89.257813 L 229.300781 89.257813 C 229.300781 118.722656 229.300781 121.738281 229.300781 129.804688 L 245.183594 112.246094 L 262.066406 112.246094 L 242.789063 131.441406 L 261.847656 160.84375 L 245.945313 160.84375 L 233.671875 140.855469 L 229.300781 145.371094 C 229.300781 149.484375 229.300781 154.542969 229.300781 160.84375 L 215.113281 160.84375 Z M 7.410156 160.902344 L 0.941406 140.453125 L 6.203125 140.453125 L 10.035156 153.855469 L 13.558594 140.453125 L 18.777344 140.453125 L 22.183594 153.855469 L 26.09375 140.453125 L 31.429688 140.453125 L 24.855469 160.902344 L 19.65625 160.902344 L 16.132813 147.742188 L 12.667969 160.902344 Z M 38.089844 160.902344 L 31.621094 140.453125 L 36.878906 140.453125 L 40.714844 153.855469 L 44.234375 140.453125 L 49.457031 140.453125 L 52.859375 153.855469 L 56.773438 140.453125 L 62.109375 140.453125 L 55.535156 160.902344 L 50.335938 160.902344 L 46.8125 147.742188 L 43.347656 160.902344 Z M 68.769531 160.902344 L 62.300781 140.453125 L 67.558594 140.453125 L 71.390625 153.855469 L 74.914063 140.453125 L 80.132813 140.453125 L 83.539063 153.855469 L 87.449219 140.453125 L 92.789063 140.453125 L 86.214844 160.902344 L 81.015625 160.902344 L 77.492188 147.742188 L 74.027344 160.902344 Z M 95.636719 160.902344 L 95.636719 155.492188 L 101.046875 155.492188 L 101.046875 160.902344 Z M 440.5625 160.9375 L 440.5625 155.53125 L 445.972656 155.53125 L 445.972656 160.9375 Z M 469.359375 146.535156 L 464.023438 147.496094 C 463.660156 145.347656 462.429688 144.273438 460.328125 144.273438 C 457.375 144.273438 455.898438 146.300781 455.898438 150.34375 C 455.898438 154.773438 457.394531 156.988281 460.398438 156.988281 C 462.523438 156.988281 463.824219 155.695313 464.3125 153.105469 L 469.628906 154.003906 C 468.511719 158.933594 465.351563 161.398438 460.148438 161.398438 C 457.007813 161.398438 454.5625 160.394531 452.8125 158.375 C 451.15625 156.476563 450.328125 153.925781 450.328125 150.730469 C 450.328125 147.496094 451.164063 144.925781 452.835938 143.027344 C 454.589844 141.023438 457.058594 140.023438 460.246094 140.023438 C 465.046875 140.023438 468.085938 142.191406 469.359375 146.535156 Z M 472.207031 150.421875 C 472.207031 148.5625 472.644531 146.8125 473.535156 145.183594 C 474.460938 143.484375 475.722656 142.203125 477.328125 141.332031 C 478.929688 140.457031 480.738281 140.023438 482.742188 140.023438 C 485.832031 140.023438 488.371094 141.023438 490.347656 143.019531 C 492.328125 145.011719 493.3125 147.554688 493.3125 150.652344 C 493.3125 153.734375 492.328125 156.296875 490.347656 158.335938 C 488.371094 160.378906 485.847656 161.398438 482.777344 161.398438 C 480.851563 161.398438 479.074219 160.984375 477.445313 160.148438 C 475.710938 159.261719 474.402344 158.007813 473.527344 156.382813 C 472.644531 154.761719 472.207031 152.769531 472.207031 150.421875 Z M 477.753906 150.710938 C 477.753906 152.445313 478.148438 153.878906 478.929688 155.023438 C 479.824219 156.332031 481.105469 156.988281 482.757813 156.988281 C 484.425781 156.988281 485.707031 156.324219 486.589844 155.003906 C 487.359375 153.859375 487.746094 152.417969 487.746094 150.671875 C 487.746094 148.949219 487.351563 147.523438 486.570313 146.378906 C 485.675781 145.082031 484.398438 144.433594 482.757813 144.433594 C 481.105469 144.433594 479.824219 145.089844 478.929688 146.398438 C 478.148438 147.542969 477.753906 148.976563 477.753906 150.710938 Z M 497.152344 140.488281 L 502.140625 140.488281 L 502.140625 143.277344 C 503.921875 141.105469 506.054688 140.023438 508.519531 140.023438 C 511.148438 140.023438 513.074219 141.105469 514.289063 143.277344 C 516.078125 141.105469 518.15625 140.023438 520.535156 140.023438 C 523.585938 140.023438 525.636719 141.226563 526.675781 143.625 C 527.050781 144.484375 527.234375 145.898438 527.234375 147.863281 L 527.234375 160.9375 L 521.824219 160.9375 L 521.824219 149.25 C 521.824219 147.207031 521.640625 145.898438 521.265625 145.320313 C 520.777344 144.550781 520.007813 144.164063 518.949219 144.164063 C 517.167969 144.164063 515.972656 145.070313 515.367188 146.878906 C 515.070313 147.777344 514.925781 149.191406 514.925781 151.117188 L 514.925781 160.9375 L 509.515625 160.9375 L 509.515625 149.730469 C 509.515625 148.292969 509.492188 147.371094 509.4375 146.976563 C 509.300781 145.792969 508.933594 145 508.339844 144.585938 C 507.933594 144.300781 507.382813 144.164063 506.683594 144.164063 C 504.824219 144.164063 503.59375 145.039063 503.003906 146.78125 C 502.707031 147.628906 502.5625 149.035156 502.5625 151 L 502.5625 160.9375 L 497.152344 160.9375 L 497.152344 140.488281 "/>
</g>
</svg>
