<!DOCTYPE svg PUBLIC "-//W3C//DTD SVG 20010904//EN" "http://www.w3.org/TR/2001/REC-SVG-20010904/DTD/svg10.dtd">
<svg version="1.0" xmlns="http://www.w3.org/2000/svg" width="222px" height="80px" viewBox="0 0 2220 800" preserveAspectRatio="xMidYMid meet">
<g id="layer101" fill="#1e4b95" fill-rule="evenodd">
<path d="M118 507 C339 238,390 189,457 189 C483 189,579 228,579 239 C579 250,639 281,650 274 C655 271,660 274,660 280 C660 287,667 298,677 305 C687 313,650 305,595 289 C421 237,421 237,155 480 C124 507,108 519,118 507 " />
<path d="M700 230 L707 225C711 223,725 212,737 200 L760 180L760 180 L765 179C767 178,788 178,810 177 C845 177,857 183,888 214 L925 250 867 224 C817 201,805 199,777 209 C759 215,727 232,705 246 C669 269,667 270,682 251 L700 230" />
</g>
<g id="layer102" fill="#f5821f" fill-rule="evenodd">
<path d="M212 782 C194 777,183 767,181 751 C177 722,223 653,251 646 C271 641,271 641,250 664 C238 677,229 696,231 706 C237 735,318 728,377 694 C403 678,497 595,586 508 C723 373,780 328,780 355 C780 359,766 392,749 431 C722 493,698 600,712 600 C715 600,746 571,781 537 C833 486,948 410,973 410 C976 409,976 448,972 496 C967 573,968 584,985 596 C1005 611,1004 614,973 624 C959 628,946 624,935 613 C918 597,918 576,936 502 C939 489,937 480,930 480 C908 480,833 534,762 603 C699 664,689 670,682 653 C673 629,673 556,682 500 L690 455 637 514 C458 719,313 810,212 782 " />
<path d="M1040 515 C1040 426,1041 420,1060 420 C1077 420,1080 426,1080 485 C1080 520,1083 550,1086 550 C1090 550,1125 523,1164 492 C1203 460,1240 430,1247 426 C1257 420,1260 440,1260 514 C1260 603,1258 610,1240 610 C1222 610,1220 603,1220 545 C1220 509,1217 480,1213 480 C1209 480,1173 507,1133 540 C1093 573,1055 602,1050 605 C1043 608,1040 575,1040 515 " />
<path d="M1300 504 L1300 409 1382 412 C1475 415,1492 434,1402 434 L1345 435 1342 517 C1340 592,1338 600,1320 600 C1301 600,1300 593,1300 504 " />
<path d="M1493 576 C1460 547,1455 482,1484 450 C1550 377,1700 413,1700 503 C1700 560,1664 588,1585 595 C1527 599,1517 597,1493 576 M1525 561 C1503 535,1505 474,1530 450 C1557 422,1605 424,1635 454 C1665 484,1667 532,1640 560 C1613 586,1546 587,1525 561 " />
<path d="M1730 510 L1730 420 1805 420 C1911 420,1946 444,1904 490 C1889 506,1890 508,1908 514 C1948 527,1945 574,1903 590 C1890 595,1846 600,1805 600 L1730 600 1730 510 M1770 548 L1770 507 1820 512 C1849 515,1878 524,1888 534 C1903 550,1903 552,1882 570 C1867 583,1845 590,1815 590 L1770 590 1770 548 M1772 467 C1774 438,1778 434,1810 431 C1834 430,1854 435,1869 447 C1890 464,1891 467,1876 483 C1865 494,1844 500,1815 500 C1770 500,1770 499,1772 467 " />
<path d="M1980 570 C1940 532,1940 491,1978 448 C2033 387,2167 404,2180 475 C2195 559,2157 600,2065 600 C2017 600,2005 595,1980 570 M2015 565 C1980 527,1988 462,2031 439 C2057 425,2113 435,2130 456 C2149 478,2147 535,2127 559 C2106 584,2037 587,2015 565 " />
<path d="M700 230 L700 225C700 222,691 220,681 220 C671 220,655 211,646 201 C637 191,630 174,630 163 C630 153,637 134,645 122 C656 106,671 100,694 100 C713 99,735 107,744 115 C752 124,760 142,760 155 L760 180L760 180 L737 200C725 212,711 223,707 225 L700 230" />
</g>

</svg>